<?xml version="1.0" encoding="utf-8"?>
<!-- Generator: Adobe Illustrator 25.1.0, SVG Export Plug-In . SVG Version: 6.00 Build 0)  -->
<svg version="1.1" id="Layer_1" xmlns="http://www.w3.org/2000/svg" xmlns:xlink="http://www.w3.org/1999/xlink" x="0px" y="0px"
	 viewBox="0 0 2000 2000" style="enable-background:new 0 0 2000 2000;" xml:space="preserve">
<style type="text/css">
	.st0{fill:#231F20;}
</style>
<g>
	
		<ellipse transform="matrix(0.7071 -0.7071 0.7071 0.7071 -367.5237 980.6795)" class="st0" cx="1000.02" cy="933.98" rx="141.64" ry="141.64"/>
	<path class="st0" d="M1337.41,857.39c-18.44-43.61-44.84-82.76-78.46-116.38c-33.62-33.62-72.78-60.02-116.38-78.46
		c-45.16-19.1-93.12-28.79-142.54-28.79c-49.42,0-97.38,9.68-142.54,28.79c-43.61,18.44-82.76,44.84-116.38,78.46
		c-33.62,33.62-60.02,72.78-78.46,116.38c-19.1,45.16-28.79,93.12-28.79,142.54c0,49.42,9.68,97.38,28.79,142.54
		c18.44,43.61,44.84,82.76,78.46,116.38c33.62,33.62,72.78,60.02,116.38,78.46c45.16,19.1,93.12,28.79,142.54,28.79
		c49.42,0,97.38-9.69,142.54-28.79c43.61-18.44,82.76-44.84,116.38-78.46c33.62-33.62,60.02-72.78,78.46-116.38
		c19.1-45.16,28.79-93.12,28.79-142.54C1366.19,950.51,1356.51,902.55,1337.41,857.39z M1177.4,1261.07v-25.49v-1.01v-41.65
		c0-57.01-23.93-109.94-64.01-141.59l-0.34-0.26l-0.32,0.29c-30.88,28.13-70.91,43.62-112.72,43.62
		c-41.8,0-81.84-15.49-112.72-43.63l-0.32-0.29l-0.34,0.26c-40.08,31.65-64.01,84.58-64.01,141.59v41.65v1.01v25.49
		c-83.49-56.89-138.42-152.72-138.42-261.14c0-174.13,141.66-315.8,315.8-315.8c174.13,0,315.8,141.66,315.8,315.8
		C1315.82,1108.35,1260.89,1204.18,1177.4,1261.07z"/>
</g>
</svg>
