<svg width="2218" height="2057" xmlns="http://www.w3.org/2000/svg" xmlns:xlink="http://www.w3.org/1999/xlink" xml:space="preserve" overflow="hidden"><g transform="translate(-1105 -119)"><path d="M2041.07 306.333C2493.75 254.542 2903.87 589.673 2957.09 1054.87 2983.7 1287.47 2916.05 1508.54 2785.16 1677.94L2773.94 1691.12 2535.78 1522.17 2557.14 1496.74C2641.65 1385.69 2685.19 1240.67 2667.72 1087.98 2632.78 782.595 2367.04 562.196 2074.18 595.703 1781.31 629.211 1572.22 903.935 1607.16 1209.32 1639.91 1495.61 1875.52 1707.22 2146.16 1704.94L2193.57 1702.03 2493.51 1914.8 2473.21 1925.21C2399.03 1958.63 2318.69 1981.25 2233.81 1990.96 1781.13 2042.75 1371.01 1707.62 1317.78 1242.42 1264.56 777.227 1588.39 358.124 2041.07 306.333Z" stroke="#000000" stroke-width="10.3125" stroke-miterlimit="8" fill="#639FAB" fill-rule="evenodd"/><path d="M2021.03 131.152C2584.48 66.6865 3093.3 469.327 3157.5 1030.48 3189.6 1311.05 3104.47 1578.13 2940.88 1783.12L2926.57 1799.4 2894.43 1776.6 2910.17 1758.71C3067.51 1561.58 3149.39 1304.75 3118.52 1034.93 3056.79 495.312 2567.42 108.125 2025.48 170.127 1483.55 232.13 1094.28 719.843 1156.02 1259.47 1217.76 1799.09 1707.13 2186.28 2249.06 2124.27 2350.67 2112.65 2446.92 2086.06 2535.83 2046.96L2620.3 2004.75 2655.08 2029.43 2641.5 2037.97C2525.33 2103.35 2394.38 2147.13 2253.52 2163.25 1690.06 2227.71 1181.25 1825.07 1117.05 1263.92 1052.84 702.776 1457.57 195.617 2021.03 131.152Z" stroke="#042433" stroke-width="10.3125" stroke-miterlimit="8" fill="#639FAB" fill-rule="evenodd"/><path d="M2224.43 1372.69 2706.34 1714.42 2709.29 1996.97 1834.66 1376.76Z" stroke="#042433" stroke-width="10.3125" stroke-miterlimit="8" fill="#639FAB" fill-rule="evenodd"/><path d="M2916.69 2141.68 2433.86 1801.25 2430.14 1518.7 3306.45 2136.55Z" stroke="#042433" stroke-width="10.3125" stroke-miterlimit="8" fill="#639FAB" fill-rule="evenodd"/><path d="M2579.59 1900.04 2342.27 1733.3 2349.64 1609.35 2780.34 1911.97Z" fill="#639FAB" fill-rule="evenodd"/><path d="M2599.42 1800.52 2362.11 1633.78 2369.48 1509.83 2800.18 1812.45Z" fill="#639FAB" fill-rule="evenodd"/><path d="M2585.49 1760.63 2348.17 1593.89 2355.54 1469.95 2786.24 1772.56Z" fill="#639FAB" fill-rule="evenodd"/></g></svg>